<svg width="512" height="512" viewBox="0 0 512 512" xmlns="http://www.w3.org/2000/svg">
  <!-- Background - Vintage paper color -->
  <rect width="512" height="512" fill="#FAF8F3" rx="64"/>
  
  <!-- Book/Agenda outline -->
  <g transform="translate(80, 80)">
    <!-- Book cover shadow -->
    <rect x="8" y="8" width="336" height="336" rx="12" fill="rgba(107, 94, 82, 0.2)"/>
    
    <!-- Book cover - Brown leather -->
    <rect width="336" height="336" rx="12" fill="#8B7355"/>
    
    <!-- Book border decoration -->
    <rect x="12" y="12" width="312" height="312" rx="8" fill="none" stroke="#6B5E52" stroke-width="3"/>
    
    <!-- Inner page (white) -->
    <rect x="32" y="32" width="272" height="272" rx="4" fill="#FFFEF9"/>
    
    <!-- Todo checkmarks -->
    <g transform="translate(60, 80)">
      <!-- Line 1 -->
      <circle cx="12" cy="12" r="10" fill="none" stroke="#B5A495" stroke-width="2"/>
      <path d="M 7 12 L 11 16 L 17 8" fill="none" stroke="#8B7355" stroke-width="2.5" stroke-linecap="round"/>
      <line x1="32" y1="12" x2="200" y2="12" stroke="#D9CFC0" stroke-width="3" stroke-linecap="round"/>
      
      <!-- Line 2 -->
      <circle cx="12" cy="52" r="10" fill="none" stroke="#B5A495" stroke-width="2"/>
      <line x1="32" y1="52" x2="180" y2="52" stroke="#D9CFC0" stroke-width="3" stroke-linecap="round"/>
      
      <!-- Line 3 -->
      <circle cx="12" cy="92" r="10" fill="none" stroke="#B5A495" stroke-width="2"/>
      <path d="M 7 92 L 11 96 L 17 88" fill="none" stroke="#8B7355" stroke-width="2.5" stroke-linecap="round"/>
      <line x1="32" y1="92" x2="160" y2="92" stroke="#D9CFC0" stroke-width="3" stroke-linecap="round"/>
      
      <!-- Line 4 -->
      <circle cx="12" cy="132" r="10" fill="none" stroke="#B5A495" stroke-width="2"/>
      <line x1="32" y1="132" x2="190" y2="132" stroke="#D9CFC0" stroke-width="3" stroke-linecap="round"/>
    </g>
    
    <!-- Decorative corners -->
    <g fill="#D4AF37" opacity="0.8">
      <!-- Top-left corner -->
      <path d="M 24 24 L 40 24 L 24 40 Z"/>
      <!-- Top-right corner -->
      <path d="M 312 24 L 312 40 L 296 24 Z"/>
      <!-- Bottom-left corner -->
      <path d="M 24 312 L 40 312 L 24 296 Z"/>
      <!-- Bottom-right corner -->
      <path d="M 312 312 L 312 296 L 296 312 Z"/>
    </g>
    
    <!-- Book spine line -->
    <line x1="20" y1="0" x2="20" y2="336" stroke="#6B5E52" stroke-width="2"/>
  </g>
  
  <!-- Bookmark ribbon -->
  <g transform="translate(256, 60)">
    <path d="M 0 0 L 24 0 L 12 20 Z" fill="#DC2626" opacity="0.9"/>
  </g>
</svg>
